<svg xmlns="http://www.w3.org/2000/svg" xmlns:xlink="http://www.w3.org/1999/xlink" width="690" height="315" viewBox="0 0 690 315">
  <defs>
    <clipPath id="clip-path">
      <circle id="Ellipse_30" data-name="Ellipse 30" cx="58" cy="58" r="58" transform="translate(4159 2986)" fill="#fda100"/>
    </clipPath>
    <clipPath id="clip-figure_data-portal-flow">
      <rect width="690" height="315"/>
    </clipPath>
  </defs>
  <g id="figure_data-portal-flow" clip-path="url(#clip-figure_data-portal-flow)">
    <g id="Group_119" data-name="Group 119" transform="translate(475.112 8325.935)">
      <g id="bg_cirlcles" transform="translate(-307 -7957)">
        <path id="bg_inner-circle" d="M876.971,512.377a56.765,56.765,0,0,1-4.889,23.107c-.021.041-.034.09-.055.131-.048.1-.09.2-.138.3-.055.131-.117.255-.179.386-.007.014-.014.034-.021.048l-.021.041c-.028.055-.048.117-.083.172-.062.145-.131.29-.2.428-.117.248-.234.49-.359.731a56.885,56.885,0,0,1-14.984,18.763c-.51.414-1.027.828-1.552,1.221a56.845,56.845,0,0,1-34.458,11.605c-.372,0-.738-.007-1.11-.014-1.083-.021-2.165-.083-3.234-.166a.192.192,0,0,0-.062-.007h-.048c-.221-.014-.448-.028-.676-.048a56.961,56.961,0,0,1-49.228-39.705c-.2-.627-.386-1.262-.552-1.9q-.527-1.883-.91-3.806c-.09-.421-.172-.841-.241-1.269a57.026,57.026,0,0,1,8.578-41.45c.31-.476.634-.952.965-1.414.359-.51.731-1.014,1.1-1.51q.517-.683,1.055-1.345a56.858,56.858,0,0,1,29.865-19.37c.455-.124.91-.241,1.372-.352.09-.021.179-.041.262-.062a57.209,57.209,0,0,1,37.374,4.082c.386.186.772.372,1.152.565.407.207.821.421,1.22.634.545.29,1.076.586,1.607.9l.3.172a.007.007,0,0,1,.007.007c.434.248.862.51,1.283.772.014.007.028.021.048.034a53.468,53.468,0,0,1,4.524,3.144c.228.172.455.352.676.538a56.763,56.763,0,0,1,21.4,39.809c.069.786.124,1.579.152,2.379,0,.048.007.09.007.138C876.951,510.833,876.971,511.605,876.971,512.377Z" transform="translate(-906.642 -794.992)" fill="#fff"/>
      </g>
      <g id="bg_cirlcles-2" data-name="bg_cirlcles" transform="translate(-134 -7957)">
        <path id="bg_inner-circle-2" data-name="bg_inner-circle" d="M876.971,512.377a56.765,56.765,0,0,1-4.889,23.107c-.021.041-.034.09-.055.131-.048.1-.09.2-.138.3-.055.131-.117.255-.179.386-.007.014-.014.034-.021.048l-.021.041c-.028.055-.048.117-.083.172-.062.145-.131.29-.2.428-.117.248-.234.49-.359.731a56.885,56.885,0,0,1-14.984,18.763c-.51.414-1.027.828-1.552,1.221a56.845,56.845,0,0,1-34.458,11.605c-.372,0-.738-.007-1.11-.014-1.083-.021-2.165-.083-3.234-.166a.192.192,0,0,0-.062-.007h-.048c-.221-.014-.448-.028-.676-.048a56.961,56.961,0,0,1-49.228-39.705c-.2-.627-.386-1.262-.552-1.9q-.527-1.883-.91-3.806c-.09-.421-.172-.841-.241-1.269a57.026,57.026,0,0,1,8.578-41.45c.31-.476.634-.952.965-1.414.359-.51.731-1.014,1.1-1.51q.517-.683,1.055-1.345a56.858,56.858,0,0,1,29.865-19.37c.455-.124.91-.241,1.372-.352.09-.021.179-.041.262-.062a57.209,57.209,0,0,1,37.374,4.082c.386.186.772.372,1.152.565.407.207.821.421,1.22.634.545.29,1.076.586,1.607.9l.3.172a.007.007,0,0,1,.007.007c.434.248.862.51,1.283.772.014.007.028.021.048.034a53.468,53.468,0,0,1,4.524,3.144c.228.172.455.352.676.538a56.763,56.763,0,0,1,21.4,39.809c.069.786.124,1.579.152,2.379,0,.048.007.09.007.138C876.951,510.833,876.971,511.605,876.971,512.377Z" transform="translate(-906.642 -794.992)" fill="#fff"/>
      </g>
      <g id="bg_cirlcles-3" data-name="bg_cirlcles" transform="translate(39 -7957)">
        <path id="bg_inner-circle-3" data-name="bg_inner-circle" d="M876.971,512.377a56.765,56.765,0,0,1-4.889,23.107c-.021.041-.034.09-.055.131-.048.1-.09.2-.138.3-.055.131-.117.255-.179.386-.007.014-.014.034-.021.048l-.021.041c-.028.055-.048.117-.083.172-.062.145-.131.29-.2.428-.117.248-.234.49-.359.731a56.885,56.885,0,0,1-14.984,18.763c-.51.414-1.027.828-1.552,1.221a56.845,56.845,0,0,1-34.458,11.605c-.372,0-.738-.007-1.11-.014-1.083-.021-2.165-.083-3.234-.166a.192.192,0,0,0-.062-.007h-.048c-.221-.014-.448-.028-.676-.048a56.961,56.961,0,0,1-49.228-39.705c-.2-.627-.386-1.262-.552-1.9q-.527-1.883-.91-3.806c-.09-.421-.172-.841-.241-1.269a57.026,57.026,0,0,1,8.578-41.45c.31-.476.634-.952.965-1.414.359-.51.731-1.014,1.1-1.51q.517-.683,1.055-1.345a56.858,56.858,0,0,1,29.865-19.37c.455-.124.91-.241,1.372-.352.09-.021.179-.041.262-.062a57.209,57.209,0,0,1,37.374,4.082c.386.186.772.372,1.152.565.407.207.821.421,1.22.634.545.29,1.076.586,1.607.9l.3.172a.007.007,0,0,1,.007.007c.434.248.862.51,1.283.772.014.007.028.021.048.034a53.468,53.468,0,0,1,4.524,3.144c.228.172.455.352.676.538a56.763,56.763,0,0,1,21.4,39.809c.069.786.124,1.579.152,2.379,0,.048.007.09.007.138C876.951,510.833,876.971,511.605,876.971,512.377Z" transform="translate(-906.642 -794.992)" fill="#fff"/>
      </g>
      <g id="bg_cirlcles-4" data-name="bg_cirlcles" transform="translate(212 -7957)">
        <path id="bg_inner-circle-4" data-name="bg_inner-circle" d="M876.971,512.377a56.765,56.765,0,0,1-4.889,23.107c-.021.041-.034.09-.055.131-.048.1-.09.2-.138.3-.055.131-.117.255-.179.386-.007.014-.014.034-.021.048l-.021.041c-.028.055-.048.117-.083.172-.062.145-.131.29-.2.428-.117.248-.234.49-.359.731a56.885,56.885,0,0,1-14.984,18.763c-.51.414-1.027.828-1.552,1.221a56.845,56.845,0,0,1-34.458,11.605c-.372,0-.738-.007-1.11-.014-1.083-.021-2.165-.083-3.234-.166a.192.192,0,0,0-.062-.007h-.048c-.221-.014-.448-.028-.676-.048a56.961,56.961,0,0,1-49.228-39.705c-.2-.627-.386-1.262-.552-1.9q-.527-1.883-.91-3.806c-.09-.421-.172-.841-.241-1.269a57.026,57.026,0,0,1,8.578-41.45c.31-.476.634-.952.965-1.414.359-.51.731-1.014,1.1-1.51q.517-.683,1.055-1.345a56.858,56.858,0,0,1,29.865-19.37c.455-.124.91-.241,1.372-.352.09-.021.179-.041.262-.062a57.209,57.209,0,0,1,37.374,4.082c.386.186.772.372,1.152.565.407.207.821.421,1.22.634.545.29,1.076.586,1.607.9l.3.172a.007.007,0,0,1,.007.007c.434.248.862.51,1.283.772.014.007.028.021.048.034a53.468,53.468,0,0,1,4.524,3.144c.228.172.455.352.676.538a56.763,56.763,0,0,1,21.4,39.809c.069.786.124,1.579.152,2.379,0,.048.007.09.007.138C876.951,510.833,876.971,511.605,876.971,512.377Z" transform="translate(-906.642 -794.992)" fill="#fff"/>
      </g>
      <path id="Fill-11" d="M449.03,224.459A66.237,66.237,0,0,1,401.9,204.941a94.4,94.4,0,0,0-17.414-14.16l-.526-2.129,2.136-.526A97.776,97.776,0,0,1,404.1,202.738a63.539,63.539,0,1,0,0-89.85,97.369,97.369,0,0,1-18.006,14.6l-2.128-.518.518-2.137A93.991,93.991,0,0,0,401.9,110.686,66.646,66.646,0,1,1,449.03,224.459" transform="translate(-324.04 -8397.103)" fill="#283c5e" fill-rule="evenodd"/>
      <path id="Fill-13" d="M428,139.385a66.251,66.251,0,0,1-47.131-19.518,94.467,94.467,0,0,0-17.414-14.16l-.526-2.129,2.137-.526a97.519,97.519,0,0,1,18.006,14.612,63.529,63.529,0,0,0,89.858,0,96.961,96.961,0,0,1,18.17-14.711l2.128.526-.526,2.137a93.693,93.693,0,0,0-17.579,14.25A66.232,66.232,0,0,1,428,139.385" transform="translate(-475.83 -8312.028)" fill="#ba1e17" fill-rule="evenodd"/>
      <path id="Fill-15" d="M406.973,139.3a66.219,66.219,0,0,1-47.123-19.518,94.439,94.439,0,0,0-17.431-14.16l-.518-2.137,2.137-.518a97.78,97.78,0,0,1,18.006,14.612,63.529,63.529,0,0,0,89.858,0,97.152,97.152,0,0,1,18-14.6l2.137.518-.526,2.137A94.331,94.331,0,0,0,454.1,119.78,66.232,66.232,0,0,1,406.973,139.3" transform="translate(-627.623 -8311.941)" fill="#fda100" fill-rule="evenodd"/>
      <path id="Fill-16" d="M387.323,224.459a66.645,66.645,0,1,1,47.123-113.773,94.33,94.33,0,0,0,17.415,14.152l.518,2.137-2.129.518a97.419,97.419,0,0,1-18-14.6,63.539,63.539,0,1,0,0,89.85,97.421,97.421,0,0,1,18-14.6l2.137.518-.518,2.137a94.087,94.087,0,0,0-17.423,14.152,66.217,66.217,0,0,1-47.123,19.518" transform="translate(-780.793 -8397.103)" fill="#006fc0" fill-rule="evenodd"/>
      <path id="Fill-17" d="M444.959,95.03a57.326,57.326,0,1,0,57.322,57.33A57.391,57.391,0,0,0,444.959,95.03Zm0,117.758a60.432,60.432,0,1,1,60.428-60.428,60.5,60.5,0,0,1-60.428,60.428Z" transform="translate(-319.967 -8391.646)" fill="#283c5e" fill-rule="evenodd"/>
      <path id="Fill-18" d="M423.93,95.03a57.326,57.326,0,1,0,57.322,57.33A57.39,57.39,0,0,0,423.93,95.03Zm0,117.758a60.432,60.432,0,1,1,60.428-60.428,60.5,60.5,0,0,1-60.428,60.428Z" transform="translate(-471.76 -8391.646)" fill="#ba1e17" fill-rule="evenodd"/>
      <path id="Fill-19" d="M402.894,95.03a57.326,57.326,0,1,0,57.322,57.33A57.389,57.389,0,0,0,402.894,95.03Zm0,117.758a60.432,60.432,0,1,1,60.429-60.428,60.5,60.5,0,0,1-60.429,60.428Z" transform="translate(-623.545 -8391.646)" fill="#fda100" fill-rule="evenodd"/>
      <path id="Fill-20" d="M381.865,95.03a57.326,57.326,0,1,0,57.322,57.33A57.389,57.389,0,0,0,381.865,95.03Zm0,117.758a60.432,60.432,0,1,1,60.428-60.428,60.5,60.5,0,0,1-60.428,60.428Z" transform="translate(-775.334 -8391.646)" fill="#006fc0" fill-rule="evenodd"/>
      <path id="Fill-6" d="M410.727,108.267l-.584-.115a36.205,36.205,0,0,0-28.64,0,1.554,1.554,0,1,1-1.175-2.876,39.2,39.2,0,0,1,30.991,0,1.558,1.558,0,0,1,.847,2.03l-1.438.962" transform="translate(-357.24 -8318.319)" fill="#6d6e71" fill-rule="evenodd"/>
      <path id="Fill-8" d="M389.706,108.279l-.584-.115a36.19,36.19,0,0,0-28.649-.008,1.554,1.554,0,1,1-1.175-2.876,39.114,39.114,0,0,1,31,.008,1.549,1.549,0,0,1,.847,2.022l-1.438.97" transform="translate(-509.034 -8318.324)" fill="#6d6e71" fill-rule="evenodd"/>
      <path id="Fill-10" d="M338.853,108.267l-1.438-.962a1.561,1.561,0,0,1,.855-2.03,39.179,39.179,0,0,1,30.983,0,1.554,1.554,0,1,1-1.175,2.876,36.185,36.185,0,0,0-28.632,0l-.592.115" transform="translate(-660.823 -8318.319)" fill="#6d6e71" fill-rule="evenodd"/>
      <path id="Fill-5" d="M395.815,101.911a40.662,40.662,0,0,1-15.491-3.2,1.554,1.554,0,0,1,1.175-2.876,36.187,36.187,0,0,0,28.632,0,1.555,1.555,0,1,1,1.183,2.876,40.7,40.7,0,0,1-15.5,3.2" transform="translate(-357.239 -8364.248)" fill="#6d6e71" fill-rule="evenodd"/>
      <path id="Fill-7" d="M374.793,101.914a40.562,40.562,0,0,1-15.5-3.205,1.549,1.549,0,0,1-.847-2.022,1.565,1.565,0,0,1,2.03-.855,36.136,36.136,0,0,0,28.64.008,1.542,1.542,0,0,1,2.022.846,1.558,1.558,0,0,1-.846,2.03,40.7,40.7,0,0,1-15.5,3.2" transform="translate(-509.038 -8364.251)" fill="#6d6e71" fill-rule="evenodd"/>
      <path id="Fill-9" d="M353.674,101.878a40.583,40.583,0,0,1-15.393-3.156,1.556,1.556,0,0,1,1.167-2.885,36.094,36.094,0,0,0,28.451,0,1.556,1.556,0,0,1,1.167,2.885,40.55,40.55,0,0,1-15.393,3.156" transform="translate(-660.739 -8364.215)" fill="#6d6e71" fill-rule="evenodd"/>
      <path id="Fill-12" d="M364.254,127.722l-1.323-.748.518-2.137a93.789,93.789,0,0,0,17.415-14.152,66.654,66.654,0,0,1,94.254,0,93.793,93.793,0,0,0,17.414,14.152l.518,2.137-2.137.518a96.848,96.848,0,0,1-17.989-14.6,63.529,63.529,0,0,0-89.858,0,97.176,97.176,0,0,1-18.006,14.6l-.805.23" transform="translate(-475.824 -8397.103)" fill="#ba1e17" fill-rule="evenodd"/>
      <path id="Fill-14" d="M470.706,127.722l-.806-.222a97.254,97.254,0,0,1-18.006-14.612,63.529,63.529,0,0,0-89.858,0,97.408,97.408,0,0,1-18,14.6l-2.137-.518.526-2.137a94.318,94.318,0,0,0,17.414-14.152,66.644,66.644,0,0,1,94.246,0,94.422,94.422,0,0,0,17.423,14.16l.526,2.129-1.331.748" transform="translate(-627.614 -8397.103)" fill="#ff9935" fill-rule="evenodd"/>
      <text id="Collect" transform="translate(-454 -8115)" fill="#333" font-size="30" font-family="DINCondensed-Bold, DIN Condensed" font-weight="700" letter-spacing="0.008em"><tspan x="0" y="0">COLLECT</tspan></text>
      <text id="Step_1:" data-name="Step 1:" transform="translate(-454 -8142)" fill="#1c7cd5" font-size="18" font-family="DINCondensed-Bold, DIN Condensed" font-weight="700" letter-spacing="0.008em"><tspan x="0" y="0">STEP 1:</tspan></text>
      <text id="Process" transform="translate(-274 -8115)" fill="#333" font-size="30" font-family="DINCondensed-Bold, DIN Condensed" font-weight="700" letter-spacing="0.008em"><tspan x="0" y="0">PROCESS</tspan></text>
      <text id="Step_2:" data-name="Step 2:" transform="translate(-274 -8142)" fill="#ee9800" font-size="18" font-family="DINCondensed-Bold, DIN Condensed" font-weight="700" letter-spacing="0.008em"><tspan x="0" y="0">STEP 2:</tspan></text>
      <text id="Study" transform="translate(-90 -8115)" fill="#333" font-size="30" font-family="DINCondensed-Bold, DIN Condensed" font-weight="700" letter-spacing="0.008em"><tspan x="0" y="0">STUDY</tspan></text>
      <text id="Step_3:" data-name="Step 3:" transform="translate(-90 -8142)" fill="#ba1e17" font-size="18" font-family="DINCondensed-Bold, DIN Condensed" font-weight="700" letter-spacing="0.008em"><tspan x="0" y="0">STEP 3:</tspan></text>
      <text id="Share" transform="translate(88 -8115)" fill="#333" font-size="30" font-family="DINCondensed-Bold, DIN Condensed" font-weight="700" letter-spacing="0.008em"><tspan x="0" y="0">SHARE</tspan></text>
      <text id="Step_4:" data-name="Step 4:" transform="translate(88 -8142)" fill="#283c5e" font-size="18" font-family="DINCondensed-Bold, DIN Condensed" font-weight="700" letter-spacing="0.008em"><tspan x="0" y="0">STEP 4:</tspan></text>
      <text id="Samples_such_as_biopsy_tissue_blood_and_urine_are_collected_from_the_participant." data-name="Samples such as biopsy tissue, blood, and urine are collected from the participant." transform="translate(-454 -8106)" fill="#666" font-size="12" font-family="Lato-Regular, Lato"><tspan x="0" y="12">Samples such as </tspan><tspan x="0" y="27">biopsy tissue, blood, </tspan><tspan x="0" y="42">and urine are </tspan><tspan x="0" y="57">collected from the </tspan><tspan x="0" y="72">participant.</tspan></text>
      <text id="Samples_are_processed_and_sent_to_interrogation_sites_for_study." data-name="Samples are processed and sent to interrogation sites for study." transform="translate(-274 -8106)" fill="#666" font-size="12" font-family="Lato-Regular, Lato"><tspan x="0" y="12">Samples are </tspan><tspan x="0" y="27">processed and sent </tspan><tspan x="0" y="42">to interrogation sites </tspan><tspan x="0" y="57">for study.</tspan></text>
      <text id="Scientists_run_experiments_using_various_technologies_which_generate_data." data-name="Scientists run experiments using various technologies which generate data." transform="translate(-90 -8106)" fill="#666" font-size="12" font-family="Lato-Regular, Lato"><tspan x="0" y="12">Scientists run </tspan><tspan x="0" y="27">experiments using </tspan><tspan x="0" y="42">various technologies </tspan><tspan x="0" y="57">which generate data.</tspan></text>
      <text id="Data_is_curated_organized_and_shared_with_participants." data-name="Data is curated, organized, and  shared with participants." transform="translate(88 -8106)" fill="#666" font-size="12" font-family="Lato-Regular, Lato"><tspan x="0" y="12">Data is curated, </tspan><tspan x="0" y="27" xml:space="preserve">organized, and  </tspan><tspan x="0" y="42">shared with </tspan><tspan x="0" y="57">participants.</tspan></text>
      <g id="cloud-data" transform="translate(84 -8279)">
        <g id="cloud">
          <path id="Path_563" data-name="Path 563" d="M533.88,339.178a16.153,16.153,0,0,1-16.152,16.156,1.711,1.711,0,1,1,0-3.422,12.729,12.729,0,0,0,2.578-25.195,1.7,1.7,0,0,1-1.362-1.727l.012-.253c0-.059.008-.1.008-.143A13.5,13.5,0,0,0,505.5,311.139H505.3l-.436.024-.277.024a1.717,1.717,0,0,1-1.584-.8,17.747,17.747,0,0,0-32.554,12.591,1.741,1.741,0,0,1-.36,1.406,1.718,1.718,0,0,1-1.323.618h-1.707a13.453,13.453,0,0,0,0,26.906,1.713,1.713,0,0,1,0,3.426,16.878,16.878,0,0,1-.261-33.754c-.059-.626-.087-1.256-.087-1.877a21.176,21.176,0,0,1,38.641-11.985h.154a16.81,16.81,0,0,1,16.857,15.99A16.183,16.183,0,0,1,533.88,339.178Z" transform="translate(-450.18 -298.52)" fill="#576680"/>
          <path id="Path_564" data-name="Path 564" d="M535.038,323.377a1.515,1.515,0,0,1-1.513,1.513,11.639,11.639,0,0,0-11.609,11.6,1.513,1.513,0,1,1-3.026,0,14.679,14.679,0,0,1,14.635-14.631A1.516,1.516,0,0,1,535.038,323.377Z" transform="translate(-491.675 -312.616)" fill="#576680"/>
        </g>
        <g id="database" transform="translate(22.632 32.839)">
          <path id="container" d="M543.981,386.444a13.108,13.108,0,0,0-4.238-2.685,38.566,38.566,0,0,0-26.387,0,13.2,13.2,0,0,0-4.242,2.689,5.613,5.613,0,0,0-1.794,3.886V419.7a5.511,5.511,0,0,0,1.794,3.862,13.093,13.093,0,0,0,4.238,2.689,38.32,38.32,0,0,0,26.387,0,13.167,13.167,0,0,0,4.25-2.7,5.523,5.523,0,0,0,1.79-3.858V390.322A5.615,5.615,0,0,0,543.981,386.444Zm-.776,33.247a2.943,2.943,0,0,1-1.022,2.048,10.952,10.952,0,0,1-3.442,2.139,35.744,35.744,0,0,1-24.391,0,10.92,10.92,0,0,1-3.43-2.131,2.939,2.939,0,0,1-1.03-2.052v-5.228a13.96,13.96,0,0,0,3.462,2,38.289,38.289,0,0,0,26.387,0,14.021,14.021,0,0,0,3.466-1.992Zm0-9.787a2.951,2.951,0,0,1-1.022,2.048,10.952,10.952,0,0,1-3.442,2.139,35.806,35.806,0,0,1-24.391,0,10.92,10.92,0,0,1-3.43-2.131,2.939,2.939,0,0,1-1.03-2.052v-5.228a14.085,14.085,0,0,0,3.462,2,38.35,38.35,0,0,0,26.387,0,14.036,14.036,0,0,0,3.466-2Zm0-9.787a2.935,2.935,0,0,1-1.022,2.044,10.881,10.881,0,0,1-3.442,2.139,35.776,35.776,0,0,1-24.391,0,10.993,10.993,0,0,1-3.43-2.131,2.939,2.939,0,0,1-1.03-2.052v-5.228a14.087,14.087,0,0,0,3.462,2,38.351,38.351,0,0,0,26.387,0,14.038,14.038,0,0,0,3.466-2Zm-1.022-7.743a10.852,10.852,0,0,1-3.446,2.139,35.763,35.763,0,0,1-24.387,0,10.99,10.99,0,0,1-3.43-2.131,2.576,2.576,0,0,1-.008-4.115,10.943,10.943,0,0,1,3.446-2.139,36.016,36.016,0,0,1,24.387,0,10.9,10.9,0,0,1,3.43,2.131,2.577,2.577,0,0,1,.008,4.115Z" transform="translate(-507.32 -381.43)" fill="#283c5e"/>
          <path id="fill_inner-bottom" d="M547.124,464.834v5.224a2.943,2.943,0,0,1-1.022,2.048,10.951,10.951,0,0,1-3.442,2.139,35.743,35.743,0,0,1-24.391,0,10.919,10.919,0,0,1-3.43-2.131,2.94,2.94,0,0,1-1.03-2.052V464.83a13.964,13.964,0,0,0,3.462,2,38.289,38.289,0,0,0,26.387,0A14.028,14.028,0,0,0,547.124,464.834Z" transform="translate(-511.239 -431.797)" fill="#fff"/>
          <path id="fill_inner-middle" d="M547.124,440.12v5.228A2.951,2.951,0,0,1,546.1,447.4a10.952,10.952,0,0,1-3.442,2.139,35.807,35.807,0,0,1-24.391,0,10.921,10.921,0,0,1-3.43-2.131,2.939,2.939,0,0,1-1.03-2.052V440.12a14.086,14.086,0,0,0,3.462,2,38.353,38.353,0,0,0,26.387,0A14.038,14.038,0,0,0,547.124,440.12Z" transform="translate(-511.239 -416.874)" fill="#fff"/>
          <path id="fill_inner-top" d="M547.124,415.41v5.228a2.936,2.936,0,0,1-1.022,2.044,10.88,10.88,0,0,1-3.442,2.139,35.777,35.777,0,0,1-24.391,0,10.993,10.993,0,0,1-3.43-2.131,2.94,2.94,0,0,1-1.03-2.052V415.41a14.088,14.088,0,0,0,3.462,2,38.351,38.351,0,0,0,26.387,0A14.04,14.04,0,0,0,547.124,415.41Z" transform="translate(-511.239 -401.951)" fill="#fff"/>
          <path id="fill_top" d="M547.124,394.249a2.943,2.943,0,0,1-1.022,2.044,10.853,10.853,0,0,1-3.446,2.139,35.764,35.764,0,0,1-24.387,0,10.991,10.991,0,0,1-3.43-2.131,2.576,2.576,0,0,1-.008-4.115,10.942,10.942,0,0,1,3.446-2.139,36.016,36.016,0,0,1,24.387,0,10.9,10.9,0,0,1,3.43,2.131A2.964,2.964,0,0,1,547.124,394.249Z" transform="translate(-511.239 -385.349)" fill="#fff"/>
        </g>
      </g>
      <g id="TIS" transform="translate(-71.565 -8279.193)">
        <g id="Microscope">
          <path id="base-stage" d="M829.453,432.787h3.274c2.167,0,4.336.059,6.5-.025a2.719,2.719,0,0,1,2.61,2.233c.165,1.254.176,2.528.258,3.861H797.928c.135-1.616-.371-3.28.525-4.823a2.234,2.234,0,0,1,1.987-1.234c2.58-.021,5.161-.012,7.741-.014h.643c-.661-.833-1.33-1.553-1.851-2.366-.617-.963-1.118-2-1.646-3.019-.23-.443-.317-.825-.982-1.026a8.64,8.64,0,0,1-6-6.16,9.683,9.683,0,0,1,.527-7.121,8.38,8.38,0,0,1,5.565-4.8,7.122,7.122,0,0,1,6.5,1.534c.546.436.983,1.006,1.508,1.471a.731.731,0,0,0,.636.116c2.5-1.105,4.993-2.243,7.49-3.363,1.294-.581,2.6-1.132,3.894-1.715,2.124-.959,4.238-1.941,6.362-2.9,1.363-.615,2.754-1.169,4.1-1.821a2.542,2.542,0,0,1,2.976,1.063,3.345,3.345,0,0,1-1.62,4.939c-1.346.485-2.614,1.189-3.92,1.785-1.412.645-2.828,1.281-4.243,1.919q-2.678,1.207-5.357,2.409c-2.073.925-4.151,1.839-6.224,2.765-.638.285-1.271.583-1.893.9a.475.475,0,0,0-.2.363,10.01,10.01,0,0,1-.831,3.605,1.743,1.743,0,0,1-.3.634c-.842.83-.52,1.651-.024,2.479a5.452,5.452,0,0,0,3.341,2.668,5.137,5.137,0,0,0,3.3-.258c2.648-1.115,5.283-2.259,7.917-3.407,2.135-.93,4.283-1.832,6.383-2.837a4.105,4.105,0,0,1,5.913,3.049,4.639,4.639,0,0,1-1.959,5.073,17.275,17.275,0,0,1-2.992,1.4c-1.915.837-3.837,1.658-5.757,2.486Zm-20.5-15.595a8.935,8.935,0,0,0-.277-1.111,2.551,2.551,0,0,0-1.871-1.69,2.51,2.51,0,0,0-2.639.888,3.433,3.433,0,0,0-.135,3.939,2.445,2.445,0,0,0,2.433,1.192C808.073,420.16,808.867,418.862,808.95,417.192Z" transform="translate(-794.795 -359.015)" fill="#ba1e17"/>
          <path id="arm-lense" d="M782.987,88.651a10.614,10.614,0,0,0-7.567,3.52c-.249-.635-.5-1.249-.73-1.87q-1.009-2.709-2-5.422a17.81,17.81,0,0,1-.987-7.206,15.7,15.7,0,0,1,2.157-7.1,12.847,12.847,0,0,1,4.462-4.8c1.167-.69,2.4-1.262,3.61-1.886.154-.08.311-.152.511-.249-.817-2.17-1.632-4.313-2.428-6.463-.236-.636-.437-1.287-.62-1.94a.838.838,0,0,1,.488-.979c.508-.289,1.038-.544,1.573-.782.284-.126.39-.22.24-.563a15.134,15.134,0,0,1-.511-1.616c-.714.317-1.392.591-2.045.916-.679.338-1.034.267-1.31-.409q-.6-1.458-1.117-2.947c-.178-.508.171-.992.774-1.268,1.588-.726,3.164-1.48,4.75-2.21,1.8-.829,3.594-1.668,5.412-2.452.651-.281.975-.067,1.2.59.325.938.64,1.88.981,2.813a.848.848,0,0,1-.437,1.175,10.444,10.444,0,0,1-1.311.635c-.326.116-.324.258-.225.524.2.527.367,1.062.552,1.607.754-.313,1.477-.6,2.187-.915.469-.209.791-.124.972.369q.674,1.833,1.343,3.668c1.049,2.873,2.1,5.745,3.144,8.622.9,2.487,1.768,4.985,2.673,7.469.153.421.053.551-.35.727-1.778.777-3.528,1.621-5.3,2.418q-2.762,1.245-5.543,2.447c-.774.334-.772.3-1.092-.534-.278-.728-.589-1.444-.93-2.273-.9.43-1.834.8-2.694,1.3a5.821,5.821,0,0,0-2.85,5.074,9.647,9.647,0,0,0,.845,3.919C781.535,84.558,782.24,86.556,782.987,88.651Z" transform="translate(-771.663 -42.806)" fill="#ba1e17"/>
          <path id="objective" d="M925.886,312.632c.495,1.39,1.032,2.687,1.389,4.031.106.4-.283.938-.464,1.406-.366.947-.776,1.877-1.105,2.836-.193.561-.641.747-1.1.958-1.515.7-3.043,1.378-4.542,2.113a1.371,1.371,0,0,1-1.281,0c-1.125-.527-2.246-1.062-3.358-1.616a.932.932,0,0,1-.428-.446c-.418-1.088-.8-2.19-1.2-3.285a.492.492,0,0,1,.321-.719c2.09-.927,4.166-1.888,6.255-2.818,1.65-.735,3.313-1.44,4.969-2.163C925.5,312.858,925.646,312.763,925.886,312.632Z" transform="translate(-896.932 -280.708)" fill="#ba1e17"/>
          <path id="focus" d="M850.486,513.071c-.083,1.67-.877,2.968-2.489,3.217a2.444,2.444,0,0,1-2.433-1.192,3.433,3.433,0,0,1,.135-3.939,2.511,2.511,0,0,1,2.64-.888,2.551,2.551,0,0,1,1.871,1.69A8.945,8.945,0,0,1,850.486,513.071Z" transform="translate(-836.331 -454.894)" fill="#fff"/>
        </g>
      </g>
      <g id="cog" transform="translate(-260 -8279)">
        <path id="icon_cog" d="M234.219,125h11.563a1.967,1.967,0,0,1,1.276.443,1.542,1.542,0,0,1,.6,1.12l1.458,9.583a32.211,32.211,0,0,1,4.687,1.927l7.4-5.573a1.689,1.689,0,0,1,1.25-.469,2.014,2.014,0,0,1,1.3.521q6.719,6.2,8.593,8.854a1.68,1.68,0,0,1,.365,1.146,2.008,2.008,0,0,1-.417,1.2q-.781,1.094-2.656,3.463t-2.813,3.672a31.386,31.386,0,0,1,2.136,5.1l9.531,1.458a1.641,1.641,0,0,1,1.094.651,1.969,1.969,0,0,1,.417,1.224v11.563a2.007,2.007,0,0,1-.417,1.2,1.585,1.585,0,0,1-1.042.677l-9.635,1.458a33.384,33.384,0,0,1-2.031,4.74q1.823,2.6,5.573,7.188a2.013,2.013,0,0,1,.521,1.3,1.737,1.737,0,0,1-.469,1.2,52.937,52.937,0,0,1-5.156,5.625q-3.75,3.7-4.9,3.7a2.544,2.544,0,0,1-1.354-.469l-7.188-5.625a29.7,29.7,0,0,1-4.74,1.979,85.241,85.241,0,0,1-1.51,9.687A1.753,1.753,0,0,1,245.781,205H234.219a1.967,1.967,0,0,1-1.276-.443,1.543,1.543,0,0,1-.6-1.12l-1.458-9.583a32.2,32.2,0,0,1-4.687-1.927l-7.344,5.573a1.874,1.874,0,0,1-1.3.469,1.8,1.8,0,0,1-1.3-.573,68.741,68.741,0,0,1-8.594-8.75,2.038,2.038,0,0,1-.365-1.2,2.007,2.007,0,0,1,.417-1.2q.781-1.094,2.656-3.463t2.813-3.672a25.774,25.774,0,0,1-2.135-5.156l-9.531-1.406a1.642,1.642,0,0,1-1.094-.651,1.969,1.969,0,0,1-.417-1.224V159.115a2.007,2.007,0,0,1,.417-1.2,1.568,1.568,0,0,1,.989-.677l9.688-1.458a25.725,25.725,0,0,1,2.031-4.792q-2.084-2.969-5.573-7.188a1.957,1.957,0,0,1-.521-1.25,2.2,2.2,0,0,1,.469-1.2,51.7,51.7,0,0,1,5.13-5.6q3.776-3.724,4.922-3.724a2.217,2.217,0,0,1,1.354.521l7.188,5.573a29.7,29.7,0,0,1,4.74-1.979,85.181,85.181,0,0,1,1.51-9.687A1.753,1.753,0,0,1,234.219,125ZM240,151.667a13.337,13.337,0,1,0,9.427,3.906A12.846,12.846,0,0,0,240,151.667Z" transform="translate(-200 -125)" fill="#fda100" fill-rule="evenodd"/>
      </g>
      <g id="Group_118" data-name="Group 118" transform="translate(-2 7)">
        <g id="Biofluids" transform="translate(-417.879 -8256.264)">
          <g id="Blood_2" data-name="Blood 2">
            <path id="vial_outline" data-name="vial outline" d="M283.94,276.22v40.546a6.443,6.443,0,1,0,12.838,0V276.22Zm11.971,23.8a2.515,2.515,0,0,0-1.384.907,1.36,1.36,0,0,1-2.345,0,2.226,2.226,0,0,0-3.658,0,1.484,1.484,0,0,1-1.169.67,1.461,1.461,0,0,1-1.166-.67,2.552,2.552,0,0,0-1.381-.907l0-16.4h11.1Z" transform="translate(-282.739 -274.419)" fill="#1c7cd5" fill-rule="evenodd"/>
            <path id="blood" d="M297.824,332.887v23.788a5.561,5.561,0,0,1-11.095-.04V332.924h-.009v-.047h.009v0a2.537,2.537,0,0,1,1.38.9,1.5,1.5,0,0,0,1.094.659.54.54,0,0,0,.072,0c.034,0,.069,0,.1,0a1.509,1.509,0,0,0,1.1-.662,2.457,2.457,0,0,1,1.5-.928c.05-.006.1-.012.156-.016a1.142,1.142,0,0,1,.147-.006c.059,0,.115,0,.172.006s.106.009.156.016a2.457,2.457,0,0,1,1.5.928,1.687,1.687,0,0,0,.922.641,1.065,1.065,0,0,0,.177.022.613.613,0,0,0,.075,0c.034,0,.069,0,.1,0a1.075,1.075,0,0,0,.177-.022,1.671,1.671,0,0,0,.919-.641A2.521,2.521,0,0,1,297.824,332.887Z" transform="translate(-284.653 -313.377)" fill="#c1272d" fill-rule="evenodd"/>
            <path id="empty_space" data-name="empty space" d="M297.824,299.96v16.4a2.515,2.515,0,0,0-1.384.907,1.36,1.36,0,0,1-2.345,0,2.226,2.226,0,0,0-3.658,0,1.484,1.484,0,0,1-1.169.67,1.461,1.461,0,0,1-1.166-.67,2.552,2.552,0,0,0-1.381-.907l0-16.4Z" transform="translate(-284.653 -291.691)" fill="#fff" fill-rule="evenodd"/>
            <path id="cap" d="M281.175,270.443h13a1.143,1.143,0,0,1,1.084,1.194v5.969a1.143,1.143,0,0,1-1.084,1.195h-13a1.143,1.143,0,0,1-1.084-1.195v-5.969A1.143,1.143,0,0,1,281.175,270.443Z" transform="translate(-280.09 -270.443)" fill="#fabd3a"/>
          </g>
          <g id="Urine" transform="translate(19.031 14.18)">
            <g id="Urine_sample" data-name="Urine sample">
              <path id="cap_color" data-name="cap color" d="M414.274,215.661v4.93H380.4v-4.93c0-.9.506-1.641,1.131-1.641h31.613C413.768,214.02,414.272,214.757,414.274,215.661Z" transform="translate(-379.389 -213.008)" fill="#fff"/>
              <path id="empty_space-2" data-name="empty space" d="M419.513,247.14v8.74H390.19v-2.167h3.383a1.1,1.1,0,1,0,.1-2.192.783.783,0,0,0-.1,0H390.19V247.14Z" transform="translate(-386.987 -238.713)" fill="#fff" opacity="0.594"/>
              <path id="outline" d="M409.252,209.5h-30.84c-1.744,0-2.525,1.29-2.527,3.034q0,1.743,0,4.339a1.049,1.049,0,0,0,1.048,1.054h1.059v24.225c-.085,2.232.421,3.244,3.161,3.159h25.277c1.811.085,3.329-.421,3.161-3.159V217.927h1.052a1.052,1.052,0,0,0,1.052-1.052v-4.216C411.692,210.915,411.274,209.5,409.252,209.5Zm-26.681,12.808a.794.794,0,0,0-.1,0h-3.383v-4.381h29.323v25.195a1.114,1.114,0,0,1-1.126,1.1H380.214a1.119,1.119,0,0,1-1.043-.687,1.081,1.081,0,0,1-.085-.41v-5.476h3.383a1.1,1.1,0,1,0,.1-2.192.8.8,0,0,0-.1,0h-3.383v-4.381h3.383a1.1,1.1,0,1,0,.1-2.192.794.794,0,0,0-.1,0h-3.383V224.5h3.383a1.1,1.1,0,1,0,.1-2.192Zm28.2-5.225H376.894v-4.93c0-.9.506-1.641,1.13-1.641h31.613c.625,0,1.128.737,1.131,1.641Z" transform="translate(-375.882 -209.5)" fill="#1c7cd5"/>
              <path id="liquid" d="M419.513,286.18v16.455a1.114,1.114,0,0,1-1.126,1.1H391.318a1.12,1.12,0,0,1-1.043-.687,1.08,1.08,0,0,1-.085-.41v-5.476h3.383a1.1,1.1,0,1,0,.1-2.192.805.805,0,0,0-.1,0H390.19v-4.381h3.383a1.1,1.1,0,1,0,.1-2.192.805.805,0,0,0-.1,0H390.19V286.18Z" transform="translate(-386.987 -269.013)" fill="#fabd3a"/>
            </g>
          </g>
        </g>
        <g id="Icons" transform="translate(-414.294 -8287)">
          <g id="Group-6" transform="translate(31.72 42.294) rotate(-135)">
            <rect id="Rectangle" width="44.86" height="14.953" rx="1" transform="translate(0 0)" fill="#1c7cd5" opacity="0.504"/>
            <rect id="Rectangle-Copy" width="10.966" height="12.959" rx="2" transform="translate(0.997 0.997)" fill="rgba(255,255,255,0.98)"/>
            <rect id="Rectangle-Copy-2" width="30.903" height="12.959" rx="2" transform="translate(12.959 0.997)" fill="rgba(255,255,255,0.98)"/>
            <path id="Path" d="M1.361,0,5.31.243,9.919,7.07l-2.234,1.4L0,2.387Z" transform="translate(21.33 3.258)" fill="#d0021b" fill-rule="evenodd" opacity="0.745"/>
          </g>
        </g>
      </g>
    </g>
  </g>
</svg>
