<svg xmlns="http://www.w3.org/2000/svg" xmlns:xlink="http://www.w3.org/1999/xlink" width="243.582" height="140" viewBox="0 0 243.582 140"><defs><linearGradient id="a" x1="1.054" y1="0.5" x2="0.004" y2="0.5" gradientUnits="objectBoundingBox"><stop offset="0" stop-color="#25344c"/><stop offset="1" stop-color="#178690"/></linearGradient></defs><g transform="translate(-294.209 -207)"><path d="M50.846,52.365q-3.5,0-3.5-5.765V25.335H9.729a4.409,4.409,0,0,1-3.308-1.37A5.017,5.017,0,0,1,5.1,20.326,7.132,7.132,0,0,1,5.192,19L18.709-77.209a19.758,19.758,0,0,1,1.276-4.962A2.4,2.4,0,0,1,22.3-83.635h7.751a2.725,2.725,0,0,1,2.458,1.37,6.435,6.435,0,0,1,.851,3.45,10.4,10.4,0,0,1-.095,1.607L24,6.055a3.217,3.217,0,0,0,.378,1.7A1.467,1.467,0,0,0,25.7,8.8H47.349V-77.87q0-5.765,3.5-5.765h9.169q3.5,0,3.5,5.765V8.8H75.8q4.159,0,4.159,5.293v5.954q0,5.293-4.159,5.293H63.512V46.6q0,5.765-3.5,5.765Zm168.721,0q-3.5,0-3.5-5.765V25.335H178.45a4.409,4.409,0,0,1-3.308-1.37,5.017,5.017,0,0,1-1.323-3.639A7.132,7.132,0,0,1,173.913,19L187.43-77.209a19.758,19.758,0,0,1,1.276-4.962,2.4,2.4,0,0,1,2.316-1.465h7.751a2.725,2.725,0,0,1,2.458,1.37,6.435,6.435,0,0,1,.851,3.45,10.4,10.4,0,0,1-.095,1.607L192.723,6.055a3.217,3.217,0,0,0,.378,1.7,1.467,1.467,0,0,0,1.323,1.04H216.07V-77.87q0-5.765,3.5-5.765h9.169q3.5,0,3.5,5.765V8.8h12.288q4.159,0,4.159,5.293v5.954q0,5.293-4.159,5.293H232.233V46.6q0,5.765-3.5,5.765Z" transform="translate(289.111 291.635)" fill="#283c5d"/><g transform="translate(376 208)"><g transform="translate(-2 -1)"><path d="M4.79,79.971c0-15.335,3.99-42.793,19.415-59.976C30.531,12.948,49.913-1.579,68.712,7.91c30.144,15.213,21.65,41.247,8.805,54.967-7.432,7.94-12.1,18.153-4.372,29.506s18.47,31.966-4.251,44.6c-18.4,10.23-36.549,2.467-42.875-4.579C10.595,115.222,4.79,95.272,4.79,79.971Z" transform="translate(-4.79 -3.845)" fill-rule="evenodd" fill="url(#a)"/><path d="M1109.379,409.661c7.042-7.523,13.769-20,11.536-32.456-1.78-9.92-8.712-18-20.611-24-19.532-9.859-39.575,5.532-45.648,12.3-6.985,7.778-12.266,18.228-15.7,31.066A119.332,119.332,0,0,0,1035,426.112c0,8.762,2.09,31.473,21.469,53.063,2.939,3.272,9.06,7.372,17.433,9.064a38.18,38.18,0,0,0,7.586.761,38.778,38.778,0,0,0,19.036-5.05c7.457-4.147,12.018-9.518,13.559-15.963,2-8.36-.935-18.172-8.984-29.993C1098.887,428.864,1100.323,419.331,1109.379,409.661Zm-7.19,27.255c-2.5,2.218-6.04,3.57-11.846,5.679-.572.208-1.15.411-1.727.605a97.032,97.032,0,0,1-1.245-16.219c3.826.473,6.984.8,9.442,1.064.992.1,1.865.194,2.619.284A21.37,21.37,0,0,0,1102.189,436.916Zm-15.463,6.889a78.044,78.044,0,0,1-15.83,3.1,86.78,86.78,0,0,1-2.739-21.935c0-.27.01-.539.014-.813,6.684,1.144,12.462,1.972,17.285,2.591A95.325,95.325,0,0,0,1086.726,443.806Zm-1.193-20.583c-.014.53-.033,1.069-.043,1.617-4.814-.619-10.563-1.447-17.209-2.586.625-7.7,3.483-17.429,8.483-27.732a87.526,87.526,0,0,1,14.07,8.525A52.657,52.657,0,0,0,1085.534,423.222Zm-7.929-30.4a131.051,131.051,0,0,1,13.244-20.914q1.481,1.17,2.881,2.44a120.736,120.736,0,0,1,9.084,9.093,120.828,120.828,0,0,0-11.145,17.859A90.363,90.363,0,0,0,1077.6,392.823Zm-1.694-.823a75.891,75.891,0,0,0-17.347-5.6,100.041,100.041,0,0,1,16.947-23.047,56.116,56.116,0,0,1,13.836,7.409A132.732,132.732,0,0,0,1075.911,392Zm-.844,1.7c-5.067,10.45-7.992,20.337-8.669,28.215-5.911-1.1-11.813-2.407-17.653-3.925a86.48,86.48,0,0,1,8.912-29.841A74.147,74.147,0,0,1,1075.066,393.7Zm-8.788,30.116q-.021.575-.029,1.135a88.229,88.229,0,0,0,2.724,22.106,78.671,78.671,0,0,1-17.419-.752,69.707,69.707,0,0,1-3.24-20.077q-.007-3.17.253-6.327C1054.427,421.411,1060.348,422.721,1066.278,423.814Zm3.168,25.089a114.351,114.351,0,0,0,7.8,20.654,58.41,58.41,0,0,1-15.148.591,118.433,118.433,0,0,1-9.914-21.855A80.768,80.768,0,0,0,1069.446,448.9Zm1.932-.156a80.27,80.27,0,0,0,15.692-3.064,72.222,72.222,0,0,0,6.4,18.819,63.7,63.7,0,0,1-14.275,4.7A112.552,112.552,0,0,1,1071.378,448.747Zm27.982-22.333c-.692-.076-1.474-.156-2.347-.251-2.5-.26-5.711-.6-9.618-1.083.009-.591.029-1.187.048-1.792a50.434,50.434,0,0,1,4.928-19.027,35.715,35.715,0,0,1,9.875,11.864A21.866,21.866,0,0,0,1099.36,426.414Zm8.621-18.039a40.931,40.931,0,0,0-4.59,5.816A38.932,38.932,0,0,0,1093.2,402.5a116.66,116.66,0,0,1,10.888-17.581c5.038,6.005,7.881,11.358,9.041,16.814A46.328,46.328,0,0,1,1107.981,408.375Zm11.054-30.839c1.379,7.693-.892,15.434-4.513,21.879-1.474-5.211-4.427-10.37-9.275-16.063,3.449-4.61,7.185-9.164,11.007-13.642A25.263,25.263,0,0,1,1119.035,377.536Zm-15.157-20.153a35.794,35.794,0,0,1,11.34,10.606c-3.9,4.558-7.715,9.2-11.25,13.9a121.9,121.9,0,0,0-8.95-8.927c-.968-.884-1.97-1.735-3-2.544A131.912,131.912,0,0,1,1103.878,357.383Zm-15.181-5.461a27.77,27.77,0,0,1,10.744,2.969c.95.482,1.87.974,2.753,1.485a133.3,133.3,0,0,0-11.679,12.89,57.614,57.614,0,0,0-13.535-7.386A107.151,107.151,0,0,1,1088.7,351.922Zm-15.386,2.842a35.649,35.649,0,0,1,12.285-2.88,108.594,108.594,0,0,0-10.587,9.273,66.494,66.494,0,0,0-9.184-2.459A48.95,48.95,0,0,1,1073.31,354.764Zm-17.232,12a46.484,46.484,0,0,1,7.495-6.554,65.868,65.868,0,0,1,9.962,2.445,101.681,101.681,0,0,0-16.932,23.378,81.764,81.764,0,0,0-11.675-1.163A64.048,64.048,0,0,1,1056.078,366.765Zm-15.282,30.3a96.476,96.476,0,0,1,3.368-10.318,79.32,79.32,0,0,1,11.541,1.055,88.347,88.347,0,0,0-8.826,29.7q-4.7-1.262-9.337-2.7A117.911,117.911,0,0,1,1040.8,397.06Zm-3.888,29.052c0-3.012.153-6.175.444-9.391q4.63,1.433,9.342,2.686c-.191,2.27-.291,4.539-.286,6.818a70.876,70.876,0,0,0,3.053,19.708,47.577,47.577,0,0,1-10.415-3.111A70.614,70.614,0,0,1,1036.908,426.112Zm2.748,19.023a54.543,54.543,0,0,0,10.42,2.823,118.646,118.646,0,0,0,9.68,21.921,42.852,42.852,0,0,1-10.019-2.572A80.126,80.126,0,0,1,1039.656,445.134Zm18.24,32.783a88.426,88.426,0,0,1-6.355-7.953,48.391,48.391,0,0,0,9.385,1.958c2.538,4.364,5.4,8.767,8.554,13.159A28.008,28.008,0,0,1,1057.9,477.917Zm14.594,8.057a162.989,162.989,0,0,1-9.232-13.84,61.356,61.356,0,0,0,14.871-.813,125.953,125.953,0,0,0,9.231,15.278A36.853,36.853,0,0,1,1072.49,485.974Zm27.1-3.674a37.694,37.694,0,0,1-10.176,3.9,123.793,123.793,0,0,1-9.337-15.259,65.4,65.4,0,0,0,14.266-4.757,72.741,72.741,0,0,0,9.379,13.453A36.549,36.549,0,0,1,1099.589,482.3Zm12.638-14.753a20.544,20.544,0,0,1-7.023,10.9,69.1,69.1,0,0,1-9.193-13.07c.792-.4,1.579-.809,2.371-1.244,5.849-3.211,10.119-6.781,12.719-10.644C1112.871,458.672,1113.238,463.329,1112.227,467.547Zm-14.771-5.064q-1.16.638-2.319,1.215a70.771,70.771,0,0,1-6.188-18.616q1.03-.34,2.052-.709c5.663-2.062,9.442-3.5,12.19-5.811.1.165.214.326.324.492a66.544,66.544,0,0,1,6.746,12.195C1107.957,455.305,1103.654,459.083,1097.456,462.483Z" transform="translate(-1035 -350)" fill="#fffffe"/></g></g></g></svg>